<svg version="1.1" id="Layer_1" xmlns="http://www.w3.org/2000/svg" xmlns:xlink="http://www.w3.org/1999/xlink" x="0px" y="0px"
	 width="100%" viewBox="0 0 225 225" enable-background="new 0 0 225 225" xml:space="preserve">
<path fill="#FBFBFB" opacity="1.000000" stroke="none" 
	d="
M126.000000,226.000000 
	C84.000000,226.000000 42.500004,226.000000 1.000005,226.000000 
	C1.000004,151.000000 1.000004,76.000015 1.000002,1.000016 
	C75.999992,1.000010 150.999985,1.000010 225.999969,1.000005 
	C225.999985,75.999985 225.999985,150.999969 226.000000,225.999969 
	C192.833328,226.000000 159.666672,226.000000 126.000000,226.000000 
M35.726192,97.862877 
	C36.177971,97.772324 36.629749,97.681770 37.999249,97.737106 
	C41.141239,97.714432 44.283630,97.716286 47.425152,97.664795 
	C60.489960,97.450691 73.555801,97.268539 86.616989,96.916092 
	C87.818932,96.883659 88.990540,95.727257 90.176239,95.092766 
	C86.272034,94.016182 82.810295,93.999550 79.348763,94.019043 
	C63.595665,94.107780 47.842617,94.206673 31.163244,94.168663 
	C28.579357,94.317406 24.638063,92.092094 24.508669,97.732635 
	C27.739784,97.732635 30.352100,97.732635 33.646122,97.927643 
	C34.109554,97.862541 34.572990,97.797440 35.726192,97.862877 
M82.135696,69.500610 
	C82.161644,69.674797 82.187599,69.848976 82.214569,70.733620 
	C87.702164,73.722694 93.119888,76.850945 98.701393,79.652946 
	C102.556503,81.588272 106.283539,84.983711 111.451210,81.954956 
	C110.929955,81.379456 110.612617,80.807335 110.126854,80.525482 
	C100.156578,74.740334 90.182663,68.960777 80.149490,63.286140 
	C79.411369,62.868668 78.218155,63.255825 77.146141,63.345398 
	C77.146141,63.345398 77.044037,63.314331 77.763145,62.878464 
	C75.594398,61.281319 73.403702,59.712955 71.262054,58.080257 
	C68.078842,55.653500 65.053398,55.034245 62.340893,58.728905 
	C66.437958,61.111130 70.533203,63.631439 74.776535,65.871185 
	C75.983353,66.508179 77.621063,66.328804 78.925835,67.491966 
	C79.955421,67.985832 80.985001,68.479698 81.998756,68.999786 
	C81.998756,68.999786 82.024635,68.984100 82.135696,69.500610 
M39.834373,84.947182 
	C42.246498,84.898140 44.658619,84.849098 47.981155,85.039627 
	C59.950443,85.039627 71.919731,85.039627 83.889023,85.039627 
	C83.893692,84.551414 83.898354,84.063210 83.903023,83.574997 
	C77.619926,79.685043 71.183884,80.162285 64.405197,82.537849 
	C64.381958,82.764359 64.466164,81.943451 64.545578,81.169205 
	C59.373474,81.169205 54.201553,81.169205 48.106590,81.003868 
	C43.725471,81.091904 39.344357,81.179932 34.153927,81.142479 
	C31.264885,80.716225 28.994915,81.220024 28.731819,84.811012 
	C32.137104,84.811012 35.537663,84.811012 39.834373,84.947182 
M145.153961,99.991219 
	C142.497620,100.919312 137.678940,97.513428 137.449493,103.669296 
	C140.458923,103.669296 143.256226,103.669296 146.966461,103.813576 
	C151.316284,103.760498 155.666122,103.707420 160.917953,103.878410 
	C174.901230,103.878410 188.884491,103.878410 202.867767,103.878410 
	C203.058167,103.386185 203.248566,102.893951 203.438965,102.401726 
	C201.901855,101.598015 200.371582,100.113342 198.826538,100.097786 
	C185.876785,99.967506 172.924301,100.106888 159.053055,100.052826 
	C154.711807,100.092674 150.370544,100.132523 145.153961,99.991219 
M175.898758,116.864861 
	C180.945053,116.756874 185.991348,116.648888 191.884247,116.737885 
	C193.287430,116.878807 194.690613,117.019722 196.093796,117.160637 
	C196.105423,117.742325 196.117035,118.324005 196.128647,118.905693 
	C186.101410,118.992851 176.074158,119.080009 165.135956,118.958305 
	C161.050705,118.958305 156.965439,118.958305 152.880188,118.958305 
	C152.816742,119.409630 152.753281,119.860962 152.689835,120.312286 
	C155.464325,121.194374 158.238815,122.076462 161.943649,123.075630 
	C171.844849,123.075630 181.746048,123.075630 191.647247,123.075630 
	C183.221466,128.031799 173.901138,124.337212 164.950714,126.171104 
	C169.872726,132.288559 176.836578,129.005829 182.773361,131.340057 
	C180.352783,131.656525 177.932220,131.972992 175.145462,132.337341 
	C175.995224,133.059967 176.761230,133.711380 177.527222,134.362793 
	C177.382629,134.781891 177.238022,135.201004 177.093414,135.620117 
	C175.339142,135.136566 173.399612,134.982101 171.860794,134.115814 
	C162.184677,128.668610 152.524139,123.184761 143.023422,117.440163 
	C139.937729,115.574402 137.702194,115.489883 135.502045,118.614243 
	C146.929840,125.209061 158.317657,131.780807 169.705490,138.352570 
	C169.582352,138.801041 169.459213,139.249527 169.336075,139.697998 
	C167.602798,139.439545 165.612274,139.641769 164.180984,138.842514 
	C158.122314,135.459320 152.276962,131.696213 146.253754,128.246368 
	C143.820526,126.852715 141.131378,125.905899 138.486649,124.706261 
	C138.486649,124.706261 138.460968,124.622726 138.322861,123.818413 
	C133.603226,121.045372 128.993057,118.052933 124.106430,115.614571 
	C122.320557,114.723442 119.878044,115.148277 117.735085,114.972771 
	C117.534088,115.683815 117.333099,116.394859 117.132103,117.105904 
	C131.619202,125.506645 146.106293,133.907394 160.593384,142.308121 
	C160.458679,142.705002 160.323975,143.101868 160.189270,143.498734 
	C158.378387,143.052429 156.357727,142.980164 154.789688,142.100800 
	C141.927612,134.887665 129.149780,127.524315 116.227654,120.138718 
	C115.750412,125.583389 115.739937,125.601570 119.653343,127.857300 
	C129.785599,133.697647 139.928009,139.520416 150.066360,145.350189 
	C149.867157,145.856049 149.667953,146.361893 149.468750,146.867737 
	C147.369247,146.171265 145.098190,145.782852 143.199585,144.725586 
	C134.466293,139.862320 125.836952,134.812393 117.063805,129.768188 
	C115.446831,134.418030 115.407578,134.484802 118.471039,136.285767 
	C125.129669,140.200302 131.832474,144.039688 138.517227,147.909805 
	C129.572601,148.495956 124.084892,141.060410 116.137329,139.325516 
	C113.825508,146.875092 122.743271,145.724854 125.535156,151.135635 
	C121.742210,149.941742 119.039909,149.091141 117.200523,148.512161 
	C115.388657,149.513733 113.915878,150.327881 111.545105,151.638412 
	C111.545105,138.601059 111.545105,126.986855 111.545105,115.315063 
	C108.910248,114.958260 106.647263,114.651810 104.121674,114.309807 
	C104.121674,126.361580 104.121674,138.333527 104.121674,150.699982 
	C102.521683,150.240036 101.267181,149.879425 100.020401,149.521011 
	C100.020401,138.380417 99.941544,127.639771 100.072937,116.901688 
	C100.108093,114.028717 100.051033,111.175453 96.588509,111.026726 
	C92.902321,110.868401 92.918839,113.854218 92.938614,116.676117 
	C93.014107,127.446945 92.969101,138.218613 92.969101,148.989975 
	C92.381569,149.200760 91.794029,149.411560 91.206497,149.622345 
	C90.418518,148.177902 88.977875,146.746826 88.947929,145.286835 
	C88.745857,135.432678 88.842567,125.572380 88.842567,115.475082 
	C81.838257,118.438560 81.834160,118.438560 81.829971,124.901108 
	C81.825249,132.191086 81.828880,139.481064 81.828880,146.734192 
	C78.161873,147.152802 77.370872,145.510117 77.427010,142.629730 
	C77.559013,135.857590 77.469292,129.081100 77.469292,122.146271 
	C72.360542,123.380188 69.737900,125.741158 70.443886,131.195374 
	C70.968513,135.248474 70.547157,139.424011 70.547157,144.598679 
	C62.980350,140.203293 67.999535,133.503922 65.741379,128.941757 
	C60.330349,129.910156 57.679165,133.093033 59.245411,138.876480 
	C54.817608,139.161453 54.162540,133.155579 49.703125,134.304504 
	C58.034237,129.293320 66.365349,124.282135 75.146210,119.092598 
	C75.434326,118.737625 75.722450,118.382652 76.689095,118.020386 
	C77.809845,117.390892 78.930588,116.761398 80.655388,116.126373 
	C81.116791,115.794342 81.578186,115.462303 82.738037,115.019272 
	C86.367699,112.919373 89.997353,110.819473 93.717201,108.667397 
	C92.456818,107.215714 91.491173,106.103516 90.504448,104.967033 
	C83.850098,108.877342 77.329086,112.709305 70.203255,116.757172 
	C69.714020,117.128319 69.224785,117.499474 68.041199,117.977974 
	C60.359386,124.004639 45.398144,130.851196 42.776104,129.268829 
	C47.954212,126.142242 53.016636,123.085503 58.772854,119.936012 
	C69.072174,113.963760 79.371490,107.991508 89.670815,102.019257 
	C89.372108,101.250313 89.073410,100.481369 88.774704,99.712425 
	C86.082855,100.304344 83.096939,100.343185 80.753014,101.589462 
	C72.996582,105.713638 65.416069,110.182220 57.916668,114.762016 
	C56.762047,115.467125 56.389065,117.452194 55.206219,118.266830 
	C53.533150,118.526917 51.676514,118.411720 50.223797,119.122299 
	C46.807980,120.793091 43.637527,122.961037 40.247066,124.691254 
	C39.405148,125.120895 38.103844,124.650337 37.013699,124.593559 
	C36.983292,124.198425 36.952885,123.803291 36.922478,123.408150 
	C46.002548,118.077240 55.082619,112.746330 64.787148,107.196083 
	C65.526749,106.733765 66.266342,106.271446 67.671097,105.684624 
	C70.031593,104.214081 72.392090,102.743546 75.406876,101.115448 
	C74.610786,100.813736 73.814697,100.512024 72.275703,100.046013 
	C71.520187,100.097160 70.764671,100.148300 69.498253,100.055908 
	C69.328926,100.107086 69.159599,100.158264 68.210526,100.041283 
	C67.878540,100.030762 67.470757,99.888077 67.225487,100.028763 
	C56.590492,106.128761 45.986435,112.283081 35.316917,118.321800 
	C34.441544,118.817253 33.132614,118.546677 32.025135,118.632042 
	C31.945333,118.109619 31.865534,117.587204 31.785734,117.064789 
	C38.166405,113.392563 44.547077,109.720345 51.272007,105.849991 
	C50.272987,104.312370 49.451931,103.048653 48.602066,101.740601 
	C41.679409,105.648178 35.148914,109.334396 28.618420,113.020615 
	C28.247538,112.493774 27.876656,111.966934 27.505774,111.440094 
	C31.770971,106.365776 39.110531,105.157318 43.349487,99.606140 
	C38.810539,100.355606 34.460274,101.712692 30.129833,103.130341 
	C28.328968,103.719887 26.570393,104.438622 24.958687,104.364868 
	C26.069458,102.984703 27.180229,101.604546 28.385756,100.106644 
	C26.911057,100.106644 25.534777,100.106644 23.793839,100.106644 
	C23.992781,101.937668 24.164667,103.519676 24.279213,106.007774 
	C25.013382,111.864159 24.651705,118.138374 26.694454,123.495804 
	C32.063622,137.577286 42.692062,147.368591 55.991547,153.898224 
	C85.777824,168.522354 116.954369,170.216339 148.809937,162.363235 
	C163.165619,158.824234 175.999939,152.544998 187.309036,142.364731 
	C198.643570,132.161575 204.546478,120.751175 202.776108,106.081680 
	C182.331589,106.081680 162.208527,106.081680 142.085464,106.081680 
	C150.945755,112.596222 160.969284,109.377419 170.443466,110.019272 
	C180.220398,110.681633 190.077118,110.166481 199.898926,110.166481 
	C199.946960,110.854103 199.994980,111.541718 200.043015,112.229340 
	C196.040314,112.534599 192.037613,112.839867 187.117142,112.956490 
	C183.073456,113.050323 179.029785,113.144157 174.052490,113.112572 
	C163.759232,113.112572 153.465973,113.112572 143.172714,113.112572 
	C143.138245,113.589592 143.103775,114.066612 143.069305,114.543633 
	C153.326691,119.011505 164.327591,116.113770 175.898758,116.864861 
M148.989227,179.655060 
	C153.723068,178.127090 158.561249,176.860718 163.171173,175.022064 
	C176.971863,169.517731 189.456390,162.126541 197.696472,149.179199 
	C201.930511,142.526413 203.546753,135.566711 202.314972,130.368729 
	C195.785889,142.575623 187.295654,151.227356 173.744522,157.752594 
	C137.661606,175.127548 100.756668,175.586594 63.322445,162.356201 
	C62.018024,161.895157 60.468044,162.128906 58.744835,162.020767 
	C57.111683,160.742615 55.182999,158.795700 52.884712,157.508881 
	C41.965214,151.395050 32.386909,143.909134 26.216585,132.712265 
	C25.745743,131.857849 25.127043,131.084915 24.251036,129.793457 
	C24.566959,139.585861 26.966509,146.578720 32.665695,153.409561 
	C47.384811,171.051361 67.678360,177.998962 89.233994,181.922241 
	C108.949699,185.510635 128.673325,184.439621 148.989227,179.655060 
M122.600761,110.416824 
	C125.912598,112.203857 129.224442,113.990891 132.608963,115.817146 
	C135.177811,114.110672 137.790436,112.375099 140.749023,110.409714 
	C137.910599,108.517029 135.332016,106.797615 132.808365,105.114830 
	C135.681656,96.947975 134.350784,91.995697 126.826317,89.279396 
	C121.120567,87.219635 114.629883,87.356514 108.499901,86.439590 
	C105.726562,86.024757 102.434914,86.205902 100.339478,84.741486 
	C96.311935,81.926781 93.088890,81.456024 89.605186,85.176453 
	C88.845734,85.987511 87.792625,86.523605 86.635956,87.358765 
	C89.510033,89.202866 92.105118,90.867943 94.660919,92.507828 
	C92.067352,98.518356 92.387985,103.795593 96.402191,106.582962 
	C99.410141,108.671623 103.188126,110.255600 106.797829,110.726669 
	C111.763657,111.374710 116.894234,110.760262 122.600761,110.416824 
M163.361710,80.890862 
	C154.683167,85.872169 146.004623,90.853477 137.326080,95.834785 
	C137.653671,96.630951 137.981262,97.427109 138.308838,98.223274 
	C141.152390,97.533524 144.284470,97.386086 146.786652,96.054764 
	C155.088638,91.637550 163.170181,86.805115 171.323990,82.110619 
	C177.136444,78.764137 182.929169,75.383369 188.730698,72.017899 
	C188.585129,71.357841 188.439545,70.697777 188.293976,70.037720 
	C186.249512,70.164703 183.903000,69.685646 182.214661,70.527145 
	C176.019989,73.614639 170.044022,77.140945 163.361710,80.890862 
M67.475075,87.572853 
	C55.190247,87.574364 42.905388,87.561714 30.620602,87.585693 
	C26.737492,87.593269 26.737579,87.638100 26.394354,91.396271 
	C45.970100,91.396271 65.538452,91.396271 85.617531,91.396271 
	C80.442398,85.730446 74.137611,88.141983 67.475075,87.572853 
M134.255341,49.917545 
	C132.087585,49.273396 129.919846,48.629246 127.249817,47.835842 
	C127.249817,57.766369 127.198708,66.710434 127.290955,75.653015 
	C127.310478,77.546432 127.982307,79.425583 128.113602,81.327866 
	C128.211105,82.740646 127.298470,84.773521 127.955414,85.462280 
	C128.837051,86.386612 131.081024,86.926018 132.213531,86.429512 
	C133.265045,85.968521 134.181015,83.938499 134.201279,82.585014 
	C134.359650,72.007065 134.287552,61.425655 134.255341,49.917545 
M115.879242,76.374382 
	C115.879242,78.468903 115.879242,80.563423 115.879242,82.565918 
	C118.672035,82.940742 120.732635,83.217293 122.765152,83.490082 
	C122.765152,71.553543 122.765152,59.818573 122.765152,48.013763 
	C120.372231,48.013763 118.289948,48.013763 115.890732,48.013763 
	C115.890732,57.289745 115.890732,66.345367 115.879242,76.374382 
M151.631821,79.262787 
	C145.674393,82.467613 139.716965,85.672447 133.505859,89.013748 
	C134.674637,90.584885 135.531830,91.737167 136.450012,92.971428 
	C151.699432,84.179657 166.882782,75.425987 182.139282,66.630142 
	C178.058502,63.580368 178.056824,63.577488 173.910599,65.987915 
	C166.638474,70.215584 159.368622,74.447174 151.631821,79.262787 
M138.669098,62.513981 
	C138.669098,68.736626 138.669098,74.959267 138.669098,81.181915 
	C139.271774,81.510880 139.874466,81.839844 140.477142,82.168800 
	C142.222153,80.454933 145.361389,78.827934 145.474518,77.012383 
	C146.007889,68.452667 145.712173,59.841293 145.712173,51.150307 
	C143.298553,50.624969 141.254776,50.180126 138.669144,49.617348 
	C138.669144,53.981316 138.669144,57.755085 138.669098,62.513981 
M158.370499,92.903732 
	C156.011017,94.273941 153.651520,95.644157 151.292038,97.014374 
	C151.505112,97.606201 151.718170,98.198029 151.931244,98.789856 
	C156.277069,97.498688 160.960709,96.852562 164.901840,94.788612 
	C174.552872,89.734421 183.864380,84.031334 193.294647,78.558556 
	C193.654861,78.349503 193.829636,77.820892 194.309509,77.123260 
	C193.303665,76.042542 192.324890,74.990891 191.324188,73.915695 
	C180.208496,80.320610 169.607788,86.428780 158.370499,92.903732 
M111.359734,72.379723 
	C101.206154,66.438332 90.945076,60.669949 80.955917,54.463909 
	C77.344864,52.220440 74.351997,52.212753 70.766258,54.502293 
	C84.226715,62.213917 97.497505,69.816872 111.239555,77.689819 
	C111.349335,75.692726 111.419991,74.407455 111.359734,72.379723 
M68.293770,71.156067 
	C73.432526,74.132576 78.661278,76.966812 83.676270,80.138977 
	C86.681274,82.039757 89.146980,82.639465 91.519058,78.948509 
	C81.190132,72.994713 70.804268,67.159988 60.594589,61.031746 
	C57.475929,59.159809 55.351860,59.740429 52.839375,62.232643 
	C57.971371,65.229622 62.794930,68.046478 68.293770,71.156067 
M48.505459,78.688896 
	C56.904144,78.688896 65.302834,78.688896 73.701523,78.688896 
	C73.840836,78.289528 73.980148,77.890160 74.119461,77.490791 
	C71.497459,76.543060 68.905556,74.891365 66.247887,74.777702 
	C57.793373,74.416100 49.308506,74.446777 40.848221,74.721519 
	C38.136395,74.809578 35.464516,76.127792 32.774361,76.883186 
	C32.926239,77.484993 33.078114,78.086792 33.229992,78.688599 
	C37.989380,78.688599 42.748772,78.688599 48.505459,78.688896 
M192.215759,82.610390 
	C183.838486,87.423737 175.461197,92.237083 166.137848,97.594017 
	C180.380188,99.406364 188.173218,88.684486 199.265137,84.787926 
	C198.052124,83.031136 197.180786,81.769196 196.262924,80.439880 
	C194.891632,81.141121 193.868408,81.664375 192.215759,82.610390 
M110.892746,62.737682 
	C105.045799,59.324249 99.092110,56.078018 93.389992,52.437733 
	C89.680878,50.069805 86.149506,49.252544 81.757240,51.657806 
	C91.652626,57.329311 101.273094,62.843254 111.352890,68.620461 
	C111.352890,66.278938 111.352890,64.802292 110.892746,62.737682 
M149.919510,62.566998 
	C149.919510,66.929733 149.919510,71.292465 149.919510,75.931953 
	C154.680511,74.376740 157.689468,72.271637 157.031448,66.794373 
	C156.543411,62.731876 156.935425,58.563656 156.935425,54.220188 
	C154.654388,53.539978 152.438522,52.879208 149.919464,52.128025 
	C149.919464,55.652348 149.919464,58.620678 149.919510,62.566998 
M99.486107,48.178028 
	C97.703926,48.451912 95.921753,48.725792 93.333473,49.123550 
	C99.606224,52.749706 105.206940,55.987366 112.289268,60.081520 
	C111.313782,56.844036 111.329536,54.260571 110.107613,53.364071 
	C107.137688,51.185101 103.592766,49.789860 99.486107,48.178028 
M195.849945,95.449707 
	C197.834564,94.298386 199.819199,93.147057 202.094711,91.826973 
	C201.417206,90.290817 200.805435,88.903740 200.048386,87.187256 
	C194.088242,90.658150 188.526245,93.897171 182.964249,97.136200 
	C183.145828,97.617897 183.327393,98.099594 183.508957,98.581291 
	C187.409027,97.678032 191.309113,96.774780 195.849945,95.449707 
M56.835716,68.093384 
	C53.371105,68.131104 49.873375,67.890610 46.452759,68.297859 
	C43.888580,68.603149 41.423649,69.742012 38.914528,70.509750 
	C39.077026,70.859711 39.239525,71.209671 39.402023,71.559631 
	C46.630165,71.559631 53.858307,71.559631 62.567318,71.559631 
	C60.056450,69.950508 58.859482,69.183418 56.835716,68.093384 
M168.086960,63.238464 
	C169.369186,57.514141 165.052917,57.136345 161.181183,55.860748 
	C161.181183,60.542271 161.181183,64.906654 161.181183,70.976639 
	C164.099930,68.059669 166.093002,66.067802 168.086960,63.238464 
M116.503693,116.009613 
	C116.632599,115.821289 116.761513,115.632957 116.890419,115.444633 
	C116.597374,115.478073 116.304329,115.511513 116.503693,116.009613 
z"/>
<path fill="#080808" opacity="1.000000" stroke="none" 
	d="
M24.792585,105.098610 
	C26.570393,104.438622 28.328968,103.719887 30.129833,103.130341 
	C34.460274,101.712692 38.810539,100.355606 43.349487,99.606140 
	C39.110531,105.157318 31.770971,106.365776 27.505774,111.440094 
	C27.876656,111.966934 28.247538,112.493774 28.618420,113.020615 
	C35.148914,109.334396 41.679409,105.648178 48.602066,101.740601 
	C49.451931,103.048653 50.272987,104.312370 51.272007,105.849991 
	C44.547077,109.720345 38.166405,113.392563 31.785734,117.064789 
	C31.865534,117.587204 31.945333,118.109619 32.025135,118.632042 
	C33.132614,118.546677 34.441544,118.817253 35.316917,118.321800 
	C45.986435,112.283081 56.590492,106.128761 67.225487,100.028763 
	C67.470757,99.888077 67.878540,100.030762 68.618019,100.358719 
	C69.186310,100.915108 69.347107,101.154045 69.507896,101.392990 
	C69.674980,100.995140 69.842064,100.597298 70.009155,100.199448 
	C70.764671,100.148300 71.520187,100.097160 72.885071,100.380066 
	C73.913818,100.900414 74.333199,101.086708 74.752586,101.273010 
	C72.392090,102.743546 70.031593,104.214081 67.259384,105.404907 
	C63.534687,103.053825 64.152573,105.590881 64.162689,107.415421 
	C55.082619,112.746330 46.002548,118.077240 36.922478,123.408150 
	C36.952885,123.803291 36.983292,124.198425 37.013699,124.593559 
	C38.103844,124.650337 39.405148,125.120895 40.247066,124.691254 
	C43.637527,122.961037 46.807980,120.793091 50.223797,119.122299 
	C51.676514,118.411720 53.533150,118.526917 55.743500,118.683235 
	C56.880211,119.409348 57.479637,119.719055 58.079063,120.028763 
	C53.016636,123.085503 47.954212,126.142242 42.776104,129.268829 
	C45.398144,130.851196 60.359386,124.004639 68.675789,118.043106 
	C69.882278,118.285721 70.454170,118.463219 71.026070,118.640717 
	C70.953407,117.940895 70.880737,117.241074 70.808075,116.541260 
	C77.329086,112.709305 83.850098,108.877342 90.504448,104.967033 
	C91.491173,106.103516 92.456818,107.215714 93.717201,108.667397 
	C89.997353,110.819473 86.367699,112.919373 82.337082,114.750999 
	C81.508545,114.175919 81.080948,113.869118 80.653358,113.562309 
	C80.452682,114.418839 80.252007,115.275375 80.051331,116.131912 
	C78.930588,116.761398 77.809845,117.390892 76.146622,117.755768 
	C74.923843,117.547623 74.243523,117.604095 73.563210,117.660561 
	C73.940964,118.197357 74.318710,118.734146 74.696465,119.270943 
	C66.365349,124.282135 58.034237,129.293320 49.703125,134.304504 
	C54.162540,133.155579 54.817608,139.161453 59.245411,138.876480 
	C57.679165,133.093033 60.330349,129.910156 65.741379,128.941757 
	C67.999535,133.503922 62.980350,140.203293 70.547157,144.598679 
	C70.547157,139.424011 70.968513,135.248474 70.443886,131.195374 
	C69.737900,125.741158 72.360542,123.380188 77.469292,122.146271 
	C77.469292,129.081100 77.559013,135.857590 77.427010,142.629730 
	C77.370872,145.510117 78.161873,147.152802 81.828880,146.734192 
	C81.828880,139.481064 81.825249,132.191086 81.829971,124.901108 
	C81.834160,118.438560 81.838257,118.438560 88.842567,115.475082 
	C88.842567,125.572380 88.745857,135.432678 88.947929,145.286835 
	C88.977875,146.746826 90.418518,148.177902 91.206497,149.622345 
	C91.794029,149.411560 92.381569,149.200760 92.969101,148.989975 
	C92.969101,138.218613 93.014107,127.446945 92.938614,116.676117 
	C92.918839,113.854218 92.902321,110.868401 96.588509,111.026726 
	C100.051033,111.175453 100.108093,114.028717 100.072937,116.901688 
	C99.941544,127.639771 100.020401,138.380417 100.020401,149.521011 
	C101.267181,149.879425 102.521683,150.240036 104.121674,150.699982 
	C104.121674,138.333527 104.121674,126.361580 104.121674,114.309807 
	C106.647263,114.651810 108.910248,114.958260 111.545105,115.315063 
	C111.545105,126.986855 111.545105,138.601059 111.545105,151.638412 
	C113.915878,150.327881 115.388657,149.513733 117.200523,148.512161 
	C119.039909,149.091141 121.742210,149.941742 125.535156,151.135635 
	C122.743271,145.724854 113.825508,146.875092 116.137329,139.325516 
	C124.084892,141.060410 129.572601,148.495956 138.517227,147.909805 
	C131.832474,144.039688 125.129669,140.200302 118.471039,136.285767 
	C115.407578,134.484802 115.446831,134.418030 117.063805,129.768188 
	C125.836952,134.812393 134.466293,139.862320 143.199585,144.725586 
	C145.098190,145.782852 147.369247,146.171265 149.468750,146.867737 
	C149.667953,146.361893 149.867157,145.856049 150.066360,145.350189 
	C139.928009,139.520416 129.785599,133.697647 119.653343,127.857300 
	C115.739937,125.601570 115.750412,125.583389 116.227654,120.138718 
	C129.149780,127.524315 141.927612,134.887665 154.789688,142.100800 
	C156.357727,142.980164 158.378387,143.052429 160.189270,143.498734 
	C160.323975,143.101868 160.458679,142.705002 160.593384,142.308121 
	C146.106293,133.907394 131.619202,125.506645 117.132103,117.105904 
	C117.333099,116.394859 117.534088,115.683815 117.735085,114.972771 
	C119.878044,115.148277 122.320557,114.723442 124.106430,115.614571 
	C128.993057,118.052933 133.603226,121.045372 138.031006,124.327530 
	C137.343994,125.105103 136.928101,125.350853 136.579010,125.669731 
	C136.533569,125.711258 136.832016,126.129250 136.971161,126.372879 
	C137.500336,125.833832 138.029510,125.294785 138.558685,124.755737 
	C141.131378,125.905899 143.820526,126.852715 146.253754,128.246368 
	C152.276962,131.696213 158.122314,135.459320 164.180984,138.842514 
	C165.612274,139.641769 167.602798,139.439545 169.336075,139.697998 
	C169.459213,139.249527 169.582352,138.801041 169.705490,138.352570 
	C158.317657,131.780807 146.929840,125.209061 135.502045,118.614243 
	C137.702194,115.489883 139.937729,115.574402 143.023422,117.440163 
	C152.524139,123.184761 162.184677,128.668610 171.860794,134.115814 
	C173.399612,134.982101 175.339142,135.136566 177.093414,135.620117 
	C177.238022,135.201004 177.382629,134.781891 177.527222,134.362793 
	C176.761230,133.711380 175.995224,133.059967 175.145462,132.337341 
	C177.932220,131.972992 180.352783,131.656525 182.773361,131.340057 
	C176.836578,129.005829 169.872726,132.288559 164.950714,126.171104 
	C173.901138,124.337212 183.221466,128.031799 191.647247,123.075630 
	C181.746048,123.075630 171.844849,123.075630 161.471130,122.687294 
	C161.936554,121.982224 162.970444,121.818481 163.786194,121.306885 
	C164.648071,120.766357 165.302094,119.894356 166.046921,119.167160 
	C176.074158,119.080009 186.101410,118.992851 196.128647,118.905693 
	C196.117035,118.324005 196.105423,117.742325 196.093796,117.160637 
	C194.690613,117.019722 193.287430,116.878807 191.421967,116.344170 
	C189.984756,115.015343 189.009842,114.080231 188.034912,113.145126 
	C192.037613,112.839867 196.040314,112.534599 200.043015,112.229340 
	C199.994980,111.541718 199.946960,110.854103 199.898926,110.166481 
	C190.077118,110.166481 180.220398,110.681633 170.443466,110.019272 
	C160.969284,109.377419 150.945755,112.596222 142.085464,106.081680 
	C162.208527,106.081680 182.331589,106.081680 202.776108,106.081680 
	C204.546478,120.751175 198.643570,132.161575 187.309036,142.364731 
	C175.999939,152.544998 163.165619,158.824234 148.809937,162.363235 
	C116.954369,170.216339 85.777824,168.522354 55.991547,153.898224 
	C42.692062,147.368591 32.063622,137.577286 26.694454,123.495804 
	C24.651705,118.138374 25.013382,111.864159 24.422468,105.639206 
	C24.565723,105.270645 24.792585,105.098610 24.792585,105.098610 
z"/>
<path fill="#080808" opacity="1.000000" stroke="none" 
	d="
M148.592514,179.779785 
	C128.673325,184.439621 108.949699,185.510635 89.233994,181.922241 
	C67.678360,177.998962 47.384811,171.051361 32.665695,153.409561 
	C26.966509,146.578720 24.566959,139.585861 24.251036,129.793457 
	C25.127043,131.084915 25.745743,131.857849 26.216585,132.712265 
	C32.386909,143.909134 41.965214,151.395050 52.884712,157.508881 
	C55.182999,158.795700 57.111683,160.742615 58.744835,162.020767 
	C60.468044,162.128906 62.018024,161.895157 63.322445,162.356201 
	C100.756668,175.586594 137.661606,175.127548 173.744522,157.752594 
	C187.295654,151.227356 195.785889,142.575623 202.314972,130.368729 
	C203.546753,135.566711 201.930511,142.526413 197.696472,149.179199 
	C189.456390,162.126541 176.971863,169.517731 163.171173,175.022064 
	C158.561249,176.860718 153.723068,178.127090 148.592514,179.779785 
z"/>
<path fill="#090909" opacity="1.000000" stroke="none" 
	d="
M122.277496,110.551765 
	C116.894234,110.760262 111.763657,111.374710 106.797829,110.726669 
	C103.188126,110.255600 99.410141,108.671623 96.402191,106.582962 
	C92.387985,103.795593 92.067352,98.518356 94.660919,92.507828 
	C92.105118,90.867943 89.510033,89.202866 86.635956,87.358765 
	C87.792625,86.523605 88.845734,85.987511 89.605186,85.176453 
	C93.088890,81.456024 96.311935,81.926781 100.339478,84.741486 
	C102.434914,86.205902 105.726562,86.024757 108.499901,86.439590 
	C114.629883,87.356514 121.120567,87.219635 126.826317,89.279396 
	C134.350784,91.995697 135.681656,96.947975 132.808365,105.114830 
	C135.332016,106.797615 137.910599,108.517029 140.749023,110.409714 
	C137.790436,112.375099 135.177811,114.110672 132.608963,115.817146 
	C129.224442,113.990891 125.912598,112.203857 122.277496,110.551765 
z"/>
<path fill="#0E0E0E" opacity="1.000000" stroke="none" 
	d="
M163.673706,80.696472 
	C170.044022,77.140945 176.019989,73.614639 182.214661,70.527145 
	C183.903000,69.685646 186.249512,70.164703 188.293976,70.037720 
	C188.439545,70.697777 188.585129,71.357841 188.730698,72.017899 
	C182.929169,75.383369 177.136444,78.764137 171.323990,82.110619 
	C163.170181,86.805115 155.088638,91.637550 146.786652,96.054764 
	C144.284470,97.386086 141.152390,97.533524 138.308838,98.223274 
	C137.981262,97.427109 137.653671,96.630951 137.326080,95.834785 
	C146.004623,90.853477 154.683167,85.872169 163.673706,80.696472 
z"/>
<path fill="#131313" opacity="1.000000" stroke="none" 
	d="
M67.968979,87.572861 
	C74.137611,88.141983 80.442398,85.730446 85.617531,91.396271 
	C65.538452,91.396271 45.970100,91.396271 26.394354,91.396271 
	C26.737579,87.638100 26.737492,87.593269 30.620602,87.585693 
	C42.905388,87.561714 55.190247,87.574364 67.968979,87.572861 
z"/>
<path fill="#101010" opacity="1.000000" stroke="none" 
	d="
M134.270966,50.381432 
	C134.287552,61.425655 134.359650,72.007065 134.201279,82.585014 
	C134.181015,83.938499 133.265045,85.968521 132.213531,86.429512 
	C131.081024,86.926018 128.837051,86.386612 127.955414,85.462280 
	C127.298470,84.773521 128.211105,82.740646 128.113602,81.327866 
	C127.982307,79.425583 127.310478,77.546432 127.290955,75.653015 
	C127.198708,66.710434 127.249817,57.766369 127.249817,47.835842 
	C129.919846,48.629246 132.087585,49.273396 134.270966,50.381432 
z"/>
<path fill="#020202" opacity="1.000000" stroke="none" 
	d="
M115.884987,75.887688 
	C115.890732,66.345367 115.890732,57.289745 115.890732,48.013763 
	C118.289948,48.013763 120.372231,48.013763 122.765152,48.013763 
	C122.765152,59.818573 122.765152,71.553543 122.765152,83.490082 
	C120.732635,83.217293 118.672035,82.940742 115.879242,82.565918 
	C115.879242,80.563423 115.879242,78.468903 115.884987,75.887688 
z"/>
<path fill="#0D0D0D" opacity="1.000000" stroke="none" 
	d="
M151.864807,78.969955 
	C159.368622,74.447174 166.638474,70.215584 173.910599,65.987915 
	C178.056824,63.577488 178.058502,63.580368 182.139282,66.630142 
	C166.882782,75.425987 151.699432,84.179657 136.450012,92.971428 
	C135.531830,91.737167 134.674637,90.584885 133.505859,89.013748 
	C139.716965,85.672447 145.674393,82.467613 151.864807,78.969955 
z"/>
<path fill="#111111" opacity="1.000000" stroke="none" 
	d="
M138.669128,62.021416 
	C138.669144,57.755085 138.669144,53.981316 138.669144,49.617348 
	C141.254776,50.180126 143.298553,50.624969 145.712173,51.150307 
	C145.712173,59.841293 146.007889,68.452667 145.474518,77.012383 
	C145.361389,78.827934 142.222153,80.454933 140.477142,82.168800 
	C139.874466,81.839844 139.271774,81.510880 138.669098,81.181915 
	C138.669098,74.959267 138.669098,68.736626 138.669128,62.021416 
z"/>
<path fill="#0F0F0F" opacity="1.000000" stroke="none" 
	d="
M158.688782,92.720345 
	C169.607788,86.428780 180.208496,80.320610 191.324188,73.915695 
	C192.324890,74.990891 193.303665,76.042542 194.309509,77.123260 
	C193.829636,77.820892 193.654861,78.349503 193.294647,78.558556 
	C183.864380,84.031334 174.552872,89.734421 164.901840,94.788612 
	C160.960709,96.852562 156.277069,97.498688 151.931244,98.789856 
	C151.718170,98.198029 151.505112,97.606201 151.292038,97.014374 
	C153.651520,95.644157 156.011017,94.273941 158.688782,92.720345 
z"/>
<path fill="#0D0D0D" opacity="1.000000" stroke="none" 
	d="
M111.425186,72.750954 
	C111.419991,74.407455 111.349335,75.692726 111.239555,77.689819 
	C97.497505,69.816872 84.226715,62.213917 70.766258,54.502293 
	C74.351997,52.212753 77.344864,52.220440 80.955917,54.463909 
	C90.945076,60.669949 101.206154,66.438332 111.425186,72.750954 
z"/>
<path fill="#0F0F0F" opacity="1.000000" stroke="none" 
	d="
M67.956131,71.009705 
	C62.794930,68.046478 57.971371,65.229622 52.839375,62.232643 
	C55.351860,59.740429 57.475929,59.159809 60.594589,61.031746 
	C70.804268,67.159988 81.190132,72.994713 91.519058,78.948509 
	C89.146980,82.639465 86.681274,82.039757 83.676270,80.138977 
	C78.661278,76.966812 73.432526,74.132576 67.956131,71.009705 
z"/>
<path fill="#020202" opacity="1.000000" stroke="none" 
	d="
M32.089554,94.301910 
	C47.842617,94.206673 63.595665,94.107780 79.348763,94.019043 
	C82.810295,93.999550 86.272034,94.016182 90.176239,95.092766 
	C88.990540,95.727257 87.818932,96.883659 86.616989,96.916092 
	C73.555801,97.268539 60.489960,97.450691 47.425152,97.664795 
	C44.283630,97.716286 41.141239,97.714432 37.554123,97.327118 
	C36.404190,96.281044 35.699375,95.644951 34.665482,94.979309 
	C33.897472,94.977806 33.458549,95.005852 32.829681,94.963074 
	C32.416157,94.732933 32.232765,94.536148 32.089554,94.301910 
M70.517097,95.449211 
	C70.517097,95.449211 70.570068,95.561737 70.517097,95.449211 
z"/>
<path fill="#242424" opacity="1.000000" stroke="none" 
	d="
M48.006813,78.688751 
	C42.748772,78.688599 37.989380,78.688599 33.229992,78.688599 
	C33.078114,78.086792 32.926239,77.484993 32.774361,76.883186 
	C35.464516,76.127792 38.136395,74.809578 40.848221,74.721519 
	C49.308506,74.446777 57.793373,74.416100 66.247887,74.777702 
	C68.905556,74.891365 71.497459,76.543060 74.119461,77.490791 
	C73.980148,77.890160 73.840836,78.289528 73.701523,78.688896 
	C65.302834,78.688896 56.904144,78.688896 48.006813,78.688751 
z"/>
<path fill="#0D0D0D" opacity="1.000000" stroke="none" 
	d="
M58.425957,119.982391 
	C57.479637,119.719055 56.880211,119.409348 55.967690,118.972481 
	C56.389065,117.452194 56.762047,115.467125 57.916668,114.762016 
	C65.416069,110.182220 72.996582,105.713638 80.753014,101.589462 
	C83.096939,100.343185 86.082855,100.304344 88.774704,99.712425 
	C89.073410,100.481369 89.372108,101.250313 89.670815,102.019257 
	C79.371490,107.991508 69.072174,113.963760 58.425957,119.982391 
z"/>
<path fill="#242424" opacity="1.000000" stroke="none" 
	d="
M159.972641,100.165024 
	C172.924301,100.106888 185.876785,99.967506 198.826538,100.097786 
	C200.371582,100.113342 201.901855,101.598015 203.438965,102.401726 
	C203.248566,102.893951 203.058167,103.386185 202.867767,103.878410 
	C188.884491,103.878410 174.901230,103.878410 160.630920,103.554672 
	C160.220123,102.208969 160.096375,101.186996 159.972641,100.165024 
z"/>
<path fill="#0F0F0F" opacity="1.000000" stroke="none" 
	d="
M77.236519,63.268909 
	C78.218155,63.255825 79.411369,62.868668 80.149490,63.286140 
	C90.182663,68.960777 100.156578,74.740334 110.126854,80.525482 
	C110.612617,80.807335 110.929955,81.379456 111.451210,81.954956 
	C106.283539,84.983711 102.556503,81.588272 98.701393,79.652946 
	C93.119888,76.850945 87.702164,73.722694 82.510666,70.358887 
	C83.368790,69.514374 83.930832,69.044601 84.492867,68.574829 
	C84.351730,68.397919 84.210594,68.221008 84.069458,68.044090 
	C83.387848,68.357430 82.706245,68.670761 82.024635,68.984100 
	C82.024635,68.984100 81.998756,68.999786 81.971252,68.631714 
	C80.983086,67.690971 80.022423,67.118309 78.991928,66.316025 
	C78.632271,65.731224 78.342422,65.376045 77.862885,64.576218 
	C77.527626,63.844002 77.382072,63.556454 77.236519,63.268909 
z"/>
<path fill="#0D0D0D" opacity="1.000000" stroke="none" 
	d="
M192.530472,82.399002 
	C193.868408,81.664375 194.891632,81.141121 196.262924,80.439880 
	C197.180786,81.769196 198.052124,83.031136 199.265137,84.787926 
	C188.173218,88.684486 180.380188,99.406364 166.137848,97.594017 
	C175.461197,92.237083 183.838486,87.423737 192.530472,82.399002 
z"/>
<path fill="#0D0D0D" opacity="1.000000" stroke="none" 
	d="
M111.122818,63.031662 
	C111.352890,64.802292 111.352890,66.278938 111.352890,68.620461 
	C101.273094,62.843254 91.652626,57.329311 81.757240,51.657806 
	C86.149506,49.252544 89.680878,50.069805 93.389992,52.437733 
	C99.092110,56.078018 105.045799,59.324249 111.122818,63.031662 
M90.583725,53.516022 
	C90.583725,53.516022 90.477325,53.578613 90.583725,53.516022 
z"/>
<path fill="#050505" opacity="1.000000" stroke="none" 
	d="
M149.919495,62.078003 
	C149.919464,58.620678 149.919464,55.652348 149.919464,52.128025 
	C152.438522,52.879208 154.654388,53.539978 156.935425,54.220188 
	C156.935425,58.563656 156.543411,62.731876 157.031448,66.794373 
	C157.689468,72.271637 154.680511,74.376740 149.919510,75.931953 
	C149.919510,71.292465 149.919510,66.929733 149.919495,62.078003 
z"/>
<path fill="#050505" opacity="1.000000" stroke="none" 
	d="
M49.029633,81.169205 
	C54.201553,81.169205 59.373474,81.169205 64.545578,81.169205 
	C64.466164,81.943451 64.381958,82.764359 64.405197,82.537849 
	C71.183884,80.162285 77.619926,79.685043 83.903023,83.574997 
	C83.898354,84.063210 83.893692,84.551414 83.889023,85.039627 
	C71.919731,85.039627 59.950443,85.039627 47.729675,84.678314 
	C47.995338,83.267731 48.512486,82.218468 49.029633,81.169205 
z"/>
<path fill="#0D0D0D" opacity="1.000000" stroke="none" 
	d="
M174.979980,116.668533 
	C164.327591,116.113770 153.326691,119.011505 143.069305,114.543633 
	C143.103775,114.066612 143.138245,113.589592 143.172714,113.112572 
	C153.465973,113.112572 163.759232,113.112572 174.495331,113.517769 
	C174.952118,114.838158 174.966064,115.753342 174.979980,116.668533 
z"/>
<path fill="#181818" opacity="1.000000" stroke="none" 
	d="
M99.882797,48.128468 
	C103.592766,49.789860 107.137688,51.185101 110.107613,53.364071 
	C111.329536,54.260571 111.313782,56.844036 112.289268,60.081520 
	C105.206940,55.987366 99.606224,52.749706 93.333473,49.123550 
	C95.921753,48.725792 97.703926,48.451912 99.882797,48.128468 
z"/>
<path fill="#131313" opacity="1.000000" stroke="none" 
	d="
M195.529572,95.660614 
	C191.309113,96.774780 187.409027,97.678032 183.508957,98.581291 
	C183.327393,98.099594 183.145828,97.617897 182.964249,97.136200 
	C188.526245,93.897171 194.088242,90.658150 200.048386,87.187256 
	C200.805435,88.903740 201.417206,90.290817 202.094711,91.826973 
	C199.819199,93.147057 197.834564,94.298386 195.529572,95.660614 
z"/>
<path fill="#090909" opacity="1.000000" stroke="none" 
	d="
M78.052582,65.020874 
	C78.342422,65.376045 78.632271,65.731224 78.984642,66.333038 
	C79.047173,66.579681 79.061172,66.523811 79.061172,66.523811 
	C77.621063,66.328804 75.983353,66.508179 74.776535,65.871185 
	C70.533203,63.631439 66.437958,61.111130 62.340893,58.728905 
	C65.053398,55.034245 68.078842,55.653500 71.262054,58.080257 
	C73.403702,59.712955 75.594398,61.281319 77.478615,63.434212 
	C77.480247,64.333603 77.766418,64.677238 78.052582,65.020874 
z"/>
<path fill="#0B0B0B" opacity="1.000000" stroke="none" 
	d="
M57.249115,68.254852 
	C58.859482,69.183418 60.056450,69.950508 62.567318,71.559631 
	C53.858307,71.559631 46.630165,71.559631 39.402023,71.559631 
	C39.239525,71.209671 39.077026,70.859711 38.914528,70.509750 
	C41.423649,69.742012 43.888580,68.603149 46.452759,68.297859 
	C49.873375,67.890610 53.371105,68.131104 57.249115,68.254852 
z"/>
<path fill="#090909" opacity="1.000000" stroke="none" 
	d="
M168.086517,63.657200 
	C166.093002,66.067802 164.099930,68.059669 161.181183,70.976639 
	C161.181183,64.906654 161.181183,60.542271 161.181183,55.860748 
	C165.052917,57.136345 169.369186,57.514141 168.086517,63.657200 
z"/>
<path fill="#181818" opacity="1.000000" stroke="none" 
	d="
M175.439377,116.766693 
	C174.966064,115.753342 174.952118,114.838158 174.962143,113.580482 
	C179.029785,113.144157 183.073456,113.050323 187.576019,113.050812 
	C189.009842,114.080231 189.984756,115.015343 190.998657,116.245682 
	C185.991348,116.648888 180.945053,116.756874 175.439377,116.766693 
z"/>
<path fill="#020202" opacity="1.000000" stroke="none" 
	d="
M159.512848,100.108925 
	C160.096375,101.186996 160.220123,102.208969 160.179901,103.442642 
	C155.666122,103.707420 151.316284,103.760498 146.511566,103.391220 
	C146.047531,102.036697 146.038422,101.104530 146.029297,100.172371 
	C150.370544,100.132523 154.711807,100.092674 159.512848,100.108925 
z"/>
<path fill="#272727" opacity="1.000000" stroke="none" 
	d="
M48.568111,81.086533 
	C48.512486,82.218468 47.995338,83.267731 47.274467,84.558533 
	C44.658619,84.849098 42.246498,84.898140 39.183449,84.643036 
	C37.342766,83.315247 36.153000,82.291611 34.963238,81.267960 
	C39.344357,81.179932 43.725471,81.091904 48.568111,81.086533 
z"/>
<path fill="#3C3C3C" opacity="1.000000" stroke="none" 
	d="
M165.591431,119.062729 
	C165.302094,119.894356 164.648071,120.766357 163.786194,121.306885 
	C162.970444,121.818481 161.936554,121.982224 161.005951,122.628754 
	C158.238815,122.076462 155.464325,121.194374 152.689835,120.312286 
	C152.753281,119.860962 152.816742,119.409630 152.880188,118.958305 
	C156.965439,118.958305 161.050705,118.958305 165.591431,119.062729 
z"/>
<path fill="#242424" opacity="1.000000" stroke="none" 
	d="
M145.591629,100.081795 
	C146.038422,101.104530 146.047531,102.036697 146.055084,103.319077 
	C143.256226,103.669296 140.458923,103.669296 137.449493,103.669296 
	C137.678940,97.513428 142.497620,100.919312 145.591629,100.081795 
z"/>
<path fill="#2D2D2D" opacity="1.000000" stroke="none" 
	d="
M31.626400,94.235283 
	C32.232765,94.536148 32.416157,94.732933 32.821568,95.299774 
	C32.990406,96.382401 32.977413,97.057518 32.964417,97.732635 
	C30.352100,97.732635 27.739784,97.732635 24.508669,97.732635 
	C24.638063,92.092094 28.579357,94.317406 31.626400,94.235283 
z"/>
<path fill="#080808" opacity="1.000000" stroke="none" 
	d="
M34.558582,81.205223 
	C36.153000,82.291611 37.342766,83.315247 38.735374,84.574951 
	C35.537663,84.811012 32.137104,84.811012 28.731819,84.811012 
	C28.994915,81.220024 31.264885,80.716225 34.558582,81.205223 
z"/>
<path fill="#444444" opacity="1.000000" stroke="none" 
	d="
M24.875637,104.731735 
	C24.792585,105.098610 24.565723,105.270645 24.451138,105.186172 
	C24.164667,103.519676 23.992781,101.937668 23.793839,100.106644 
	C25.534777,100.106644 26.911057,100.106644 28.385756,100.106644 
	C27.180229,101.604546 26.069458,102.984703 24.875637,104.731735 
z"/>
<path fill="#111111" opacity="1.000000" stroke="none" 
	d="
M64.474915,107.305756 
	C64.152573,105.590881 63.534687,103.053825 66.926811,105.467155 
	C66.266342,106.271446 65.526749,106.733765 64.474915,107.305756 
z"/>
<path fill="#242424" opacity="1.000000" stroke="none" 
	d="
M78.993500,67.007889 
	C79.061172,66.523811 79.047173,66.579681 79.054459,66.562668 
	C80.022423,67.118309 80.983086,67.690971 81.979172,68.618607 
	C80.985001,68.479698 79.955421,67.985832 78.993500,67.007889 
z"/>
<path fill="#111111" opacity="1.000000" stroke="none" 
	d="
M74.921341,119.181770 
	C74.318710,118.734146 73.940964,118.197357 73.563210,117.660561 
	C74.243523,117.604095 74.923843,117.547623 75.807358,117.759422 
	C75.722450,118.382652 75.434326,118.737625 74.921341,119.181770 
z"/>
<path fill="#111111" opacity="1.000000" stroke="none" 
	d="
M80.353363,116.129135 
	C80.252007,115.275375 80.452682,114.418839 80.653358,113.562309 
	C81.080948,113.869118 81.508545,114.175919 81.987862,114.806503 
	C81.578186,115.462303 81.116791,115.794342 80.353363,116.129135 
z"/>
<path fill="#2D2D2D" opacity="1.000000" stroke="none" 
	d="
M34.994564,95.008858 
	C35.699375,95.644951 36.404190,96.281044 37.095261,97.254181 
	C36.629749,97.681770 36.177971,97.772324 35.373436,97.458008 
	C35.011974,96.371719 35.003269,95.690285 34.994564,95.008858 
z"/>
<path fill="#444444" opacity="1.000000" stroke="none" 
	d="
M34.665482,94.979309 
	C35.003269,95.690285 35.011974,96.371719 35.028549,97.392746 
	C34.572990,97.797440 34.109554,97.862541 33.305267,97.830139 
	C32.977413,97.057518 32.990406,96.382401 33.011513,95.370590 
	C33.458549,95.005852 33.897472,94.977806 34.665482,94.979309 
z"/>
<path fill="#111111" opacity="1.000000" stroke="none" 
	d="
M70.505661,116.649216 
	C70.880737,117.241074 70.953407,117.940895 71.026070,118.640717 
	C70.454170,118.463219 69.882278,118.285721 69.022964,117.989426 
	C69.224785,117.499474 69.714020,117.128319 70.505661,116.649216 
z"/>
<path fill="#242424" opacity="1.000000" stroke="none" 
	d="
M82.080170,69.242355 
	C82.706245,68.670761 83.387848,68.357430 84.069458,68.044090 
	C84.210594,68.221008 84.351730,68.397919 84.492867,68.574829 
	C83.930832,69.044601 83.368790,69.514374 82.510147,70.003654 
	C82.187599,69.848976 82.161644,69.674797 82.080170,69.242355 
z"/>
<path fill="#0E0E0E" opacity="1.000000" stroke="none" 
	d="
M138.522675,124.731003 
	C138.029510,125.294785 137.500336,125.833832 136.971161,126.372879 
	C136.832016,126.129250 136.533569,125.711258 136.579010,125.669731 
	C136.928101,125.350853 137.343994,125.105103 138.100067,124.729691 
	C138.460968,124.622726 138.486649,124.706261 138.522675,124.731003 
z"/>
<path fill="#111111" opacity="1.000000" stroke="none" 
	d="
M75.079727,101.194229 
	C74.333199,101.086708 73.913818,100.900414 73.256516,100.462219 
	C73.814697,100.512024 74.610786,100.813736 75.079727,101.194229 
z"/>
<path fill="#111111" opacity="1.000000" stroke="none" 
	d="
M69.753708,100.127678 
	C69.842064,100.597298 69.674980,100.995140 69.507896,101.392990 
	C69.347107,101.154045 69.186310,100.915108 69.007889,100.442810 
	C69.159599,100.158264 69.328926,100.107086 69.753708,100.127678 
z"/>
<path fill="#242424" opacity="1.000000" stroke="none" 
	d="
M77.862885,64.576218 
	C77.766418,64.677238 77.480247,64.333603 77.119064,63.652145 
	C77.044037,63.314331 77.146141,63.345398 77.191330,63.307152 
	C77.382072,63.556454 77.527626,63.844002 77.862885,64.576218 
z"/>
<path fill="#080808" opacity="1.000000" stroke="none" 
	d="
M116.257492,115.777283 
	C116.304329,115.511513 116.597374,115.478073 116.890427,115.444626 
	C116.761513,115.632957 116.632599,115.821289 116.257492,115.777283 
z"/>
<path fill="#444444" opacity="1.000000" stroke="none" 
	d="
M70.543579,95.505478 
	C70.570068,95.561737 70.517097,95.449211 70.543579,95.505478 
z"/>
<path fill="#0E0E0E" opacity="1.000000" stroke="none" 
	d="
M90.530525,53.547318 
	C90.477325,53.578613 90.583725,53.516022 90.530525,53.547318 
z"/>
</svg>